<?xml version="1.0" encoding="UTF-8"?>
<svg version="1.1" xmlns="http://www.w3.org/2000/svg" width="512" height="512">
<path d="M0 0 C1.40897804 0.00333092 1.40897804 0.00333092 2.84642029 0.00672913 C3.90744461 0.00680466 4.96846893 0.00688019 6.06164551 0.00695801 C7.21579453 0.01211929 8.36994354 0.01728058 9.55906677 0.02259827 C10.73404221 0.02401321 11.90901764 0.02542816 13.11959839 0.02688599 C16.88981116 0.0325046 20.65996556 0.04506026 24.43016052 0.05775452 C26.97898779 0.06276712 29.52781599 0.06733044 32.0766449 0.07142639 C38.34033943 0.08248008 44.60399006 0.09975718 50.86766052 0.12025452 C50.86766052 3.75025452 50.86766052 7.38025452 50.86766052 11.12025452 C35.35766052 11.12025452 19.84766052 11.12025452 3.86766052 11.12025452 C3.20766052 13.10025452 2.54766052 15.08025452 1.86766052 17.12025452 C0.79455516 19.53375131 -0.30099818 21.91884355 -1.44093323 24.29994202 C-1.76384338 24.98181076 -2.08675354 25.6636795 -2.41944885 26.36621094 C-3.10984675 27.82351703 -3.80168877 29.28013971 -4.49485779 30.73612976 C-6.30923404 34.54912709 -8.11040483 38.36836174 -9.91358948 42.18666077 C-10.2731926 42.94740402 -10.63279572 43.70814728 -11.0032959 44.49194336 C-14.21777433 51.29375944 -17.41203184 58.10439272 -20.56983948 64.93275452 C-21.02350891 65.90261292 -21.47717834 66.87247131 -21.94459534 67.87171936 C-22.35588684 68.76455627 -22.76717834 69.65739319 -23.19093323 70.57728577 C-23.54470032 71.34016907 -23.89846741 72.10305237 -24.26295471 72.88905334 C-25.19525177 75.28171351 -25.70052688 77.59313463 -26.13233948 80.12025452 C-25.5058551 80.10865295 -24.87937073 80.09705139 -24.23390198 80.08509827 C-23.41663635 80.07607483 -22.59937073 80.06705139 -21.75733948 80.05775452 C-20.9452301 80.04615295 -20.13312073 80.03455139 -19.29640198 80.02259827 C-17.13233948 80.12025452 -17.13233948 80.12025452 -15.13233948 81.12025452 C-15.08299292 86.92265066 -15.04664546 92.72492533 -15.0224762 98.52748108 C-15.0124032 100.50243761 -14.99874427 102.47737918 -14.98146057 104.45228577 C-14.95726909 107.2869587 -14.94586956 110.12143489 -14.93702698 112.95619202 C-14.92670441 113.8426944 -14.91638184 114.72919678 -14.90574646 115.64256287 C-14.90534878 117.80311403 -15.00961414 119.9631917 -15.13233948 122.12025452 C-17.13233948 124.12025452 -17.13233948 124.12025452 -19.10353088 124.3473053 C-20.28181458 124.33159485 -20.28181458 124.33159485 -21.48390198 124.31556702 C-22.76007385 124.30589905 -22.76007385 124.30589905 -24.06202698 124.29603577 C-25.39620667 124.27089905 -25.39620667 124.27089905 -26.75733948 124.24525452 C-27.65452698 124.23623108 -28.55171448 124.22720764 -29.47608948 124.21791077 C-31.69510533 124.19430421 -33.91359025 124.16137761 -36.13233948 124.12025452 C-36.46233948 126.43025452 -36.79233948 128.74025452 -37.13233948 131.12025452 C-36.24546448 131.32650452 -35.35858948 131.53275452 -34.44483948 131.74525452 C-29.82426949 133.66322696 -27.39318954 136.59855439 -25.13233948 141.12025452 C-24.97927047 142.9319655 -24.88287287 144.74863392 -24.81593323 146.56556702 C-24.75309143 148.1801178 -24.75309143 148.1801178 -24.6889801 149.82728577 C-24.6496637 150.95521545 -24.61034729 152.08314514 -24.56983948 153.24525452 C-24.50506409 154.94875061 -24.50506409 154.94875061 -24.4389801 156.68666077 C-24.33267908 159.4977322 -24.23064543 162.30889396 -24.13233948 165.12025452 C-23.85261292 164.29783264 -23.57288635 163.47541077 -23.28468323 162.62806702 C-17.46614006 146.42595003 -8.52156838 135.84488697 6.86766052 128.12025452 C20.09937037 122.66839211 35.39893222 122.16105748 48.86766052 127.12025452 C63.26325875 133.31532575 73.73786092 144.16606252 79.83250427 158.47181702 C83.08620364 166.79637616 82.86766052 172.48374665 82.86766052 182.12025452 C154.14766052 182.12025452 225.42766052 182.12025452 298.86766052 182.12025452 C298.86766052 178.82025452 298.86766052 175.52025452 298.86766052 172.12025452 C300.90160611 156.5980382 308.18754386 143.64612556 320.57078552 134.01869202 C327.03336407 129.67953214 334.89418393 125.12025452 342.86766052 125.12025452 C344.06053464 128.99709539 344.86766052 132.03647375 344.86766052 136.12025452 C344.03363708 136.39998108 343.19961365 136.67970764 342.34031677 136.96791077 C329.46848672 141.55340807 321.13792493 148.02034329 314.61766052 160.05775452 C309.78532029 170.38688176 309.76957699 181.22940766 312.77000427 192.10072327 C316.89006254 203.43454902 324.81216039 211.97830306 335.68016052 217.05775452 C346.07407167 221.48229101 358.19530281 221.90081131 368.86766052 218.05775452 C380.54892491 212.84342453 388.20946813 204.79922754 393.30516052 193.05775452 C396.96463824 181.87337672 396.12406592 168.61755969 390.86766052 158.12025452 C388.81486817 154.80980204 386.52737082 151.96093479 383.86766052 149.12025452 C383.29402771 148.49377014 382.7203949 147.86728577 382.12937927 147.22181702 C376.36325779 141.56681993 369.28359833 138.96372505 361.86766052 136.12025452 C362.19766052 132.82025452 362.52766052 129.52025452 362.86766052 126.12025452 C368.51243971 124.23866146 374.31982089 127.88854289 379.46141052 130.37416077 C391.97463333 137.32375128 400.55960059 147.95523909 405.24266052 161.37025452 C406.86766052 168.12025452 406.86766052 168.12025452 406.86766052 182.12025452 C417.09766052 182.12025452 427.32766052 182.12025452 437.86766052 182.12025452 C437.86766052 178.49025452 437.86766052 174.86025452 437.86766052 171.12025452 C436.93824646 171.16666077 436.0088324 171.21306702 435.05125427 171.26087952 C422.32962713 171.63231389 422.32962713 171.63231389 416.86766052 167.12025452 C413.18133169 163.33940443 412.56404672 160.23896583 412.36766052 155.12025452 C412.55765594 150.00304458 413.23932389 146.93955624 416.86766052 143.12025452 C422.25704036 138.14544236 428.8607335 137.91035311 435.86766052 137.12025452 C432.49422224 119.57837545 423.83439196 104.67287586 409.01609802 94.42103577 C397.42738937 87.40459944 386.10408182 84.02746592 372.67234802 82.80384827 C371.64062469 82.70185623 370.60890137 82.5998642 369.5459137 82.49478149 C366.27895452 82.17355019 363.01094713 81.86515562 359.74266052 81.55775452 C357.57590581 81.34837725 355.40923812 81.13809726 353.24266052 80.92689514 C352.18312164 80.82364426 351.12358276 80.72039337 350.03193665 80.61401367 C345.92273098 80.21221738 341.81374008 79.80834026 337.7051239 79.40055847 C335.87087647 79.21935902 334.0363759 79.04069623 332.20158386 78.86509705 C329.83372444 78.63610605 327.46789961 78.39233835 325.10203552 78.14369202 C323.80233826 78.01269104 322.50264099 77.88169006 321.16355896 77.74671936 C315.67953089 76.7043478 312.75311133 73.93470872 308.86766052 70.12025452 C307.11494679 68.57695455 305.34149565 67.05948468 303.56712341 65.54115295 C301.6012149 63.85615886 299.64924115 62.15616714 297.69969177 60.45228577 C294.26176827 57.45496723 290.79305173 54.49667545 287.30516052 51.55775452 C283.36520461 48.23792078 279.44140162 44.90091796 275.53709412 41.53919983 C272.65388736 39.0584652 269.76190865 36.5880909 266.86766052 34.12025452 C265.89699646 33.29138733 264.9263324 32.46252014 263.92625427 31.60853577 C251.39951657 21.11316093 237.27843074 12.05625723 220.42631531 11.96203613 C219.78177989 11.95709816 219.13724447 11.95216018 218.47317767 11.94707257 C216.31593752 11.9317285 214.15872707 11.92334537 212.00144958 11.91493225 C210.45407857 11.90535129 208.90671016 11.89534108 207.35934448 11.88493347 C203.15931875 11.85790193 198.9592818 11.83688288 194.75921726 11.81693149 C190.36962402 11.79506115 185.98006528 11.76767758 181.59049988 11.74087524 C173.27852445 11.69096254 164.96652985 11.64601843 156.65451694 11.60285288 C147.19146175 11.55346836 137.72844118 11.49855473 128.26541948 11.44317329 C108.79953198 11.32937507 89.3336118 11.22253132 69.86766052 11.12025452 C69.86766052 7.49025452 69.86766052 3.86025452 69.86766052 0.12025452 C90.2091991 0.02655528 110.5506935 -0.04384955 130.8924036 -0.08699417 C140.33873804 -0.10756497 149.78493789 -0.13557996 159.23118591 -0.1815033 C167.47050032 -0.22153977 175.70971719 -0.24721807 183.94912618 -0.25609946 C188.30645834 -0.26128593 192.66351163 -0.27335979 197.02075386 -0.30266571 C201.1338107 -0.33010146 205.24647756 -0.33813457 209.35961723 -0.33217621 C210.85785426 -0.33326401 212.35610626 -0.34104865 213.85426331 -0.35656738 C226.90655578 -0.48497677 239.29250779 1.58929312 250.99266052 7.68275452 C251.65096863 8.01863586 252.30927673 8.35451721 252.98753357 8.70057678 C259.5400393 12.20794118 264.92713912 16.81787983 270.39451599 21.8004303 C272.60879348 23.78425266 274.92458178 25.6346464 277.24266052 27.49525452 C283.60292503 32.67393142 289.7678663 38.07185064 295.95359802 43.45619202 C311.18944416 58.70100783 311.18944416 58.70100783 329.91136169 66.64515686 C330.94061264 66.73550201 331.96986359 66.82584717 333.03030396 66.91893005 C334.70356499 67.06112473 334.70356499 67.06112473 336.41062927 67.20619202 C338.78890533 67.41689427 341.16715984 67.62783996 343.5453949 67.83900452 C347.28138128 68.16669268 351.01753452 68.4920261 354.75413513 68.81263733 C385.86824336 71.49528183 411.33244984 75.24675889 432.86766052 100.12025452 C441.18638033 111.28863959 447.95878604 125.75021048 448.01292419 139.88856506 C448.02249397 141.5900898 448.02249397 141.5900898 448.03225708 143.32598877 C448.03392632 145.1480761 448.03392632 145.1480761 448.03562927 147.00697327 C448.03895767 148.26032974 448.04228607 149.51368622 448.04571533 150.80502319 C448.05077263 153.450257 448.05355714 156.09538796 448.05296326 158.74061584 C448.05286121 162.13363648 448.066566 165.52644985 448.08373547 168.9194212 C448.09749918 172.15693094 448.09694293 175.3944382 448.09812927 178.63197327 C448.10531479 179.85277084 448.11250031 181.07356842 448.11990356 182.33135986 C448.11682693 183.4562532 448.11375031 184.58114655 448.11058044 185.74012756 C448.11200546 186.73320419 448.11343048 187.72628082 448.11489868 188.74945068 C447.86766052 191.12025452 447.86766052 191.12025452 445.86766052 193.12025452 C442.78241113 193.29578871 439.7880185 193.35148249 436.70359802 193.31556702 C435.79639008 193.31273712 434.88918213 193.30990723 433.95448303 193.30699158 C431.05040929 193.29577604 428.1466414 193.27066914 425.24266052 193.24525452 C423.27651914 193.23522648 421.31037293 193.22610033 419.34422302 193.21791077 C414.51858393 193.19583224 409.69317412 193.16129316 404.86766052 193.12025452 C404.72594421 194.05506653 404.58422791 194.98987854 404.43821716 195.95301819 C402.45990448 206.93489687 393.83443495 216.36201572 385.18016052 222.87025452 C371.78552569 231.78618792 355.91489719 234.26141221 340.21922302 231.47181702 C324.73816881 227.08614306 313.91593221 218.44104407 305.41062927 205.02650452 C303.56391323 201.54813304 302.25045526 197.80770715 300.86766052 194.12025452 C228.26766052 193.79025452 155.66766052 193.46025452 80.86766052 193.12025452 C79.87766052 196.42025452 78.88766052 199.72025452 77.86766052 203.12025452 C74.74868694 208.774318 70.66567969 213.80203727 65.86766052 218.12025452 C65.36879333 218.59978577 64.86992615 219.07931702 64.35594177 219.57337952 C53.13524034 229.93095007 39.16763766 232.93312717 24.31687927 232.47181702 C8.7266139 231.54513458 -3.67397398 223.44661822 -13.92140198 212.14759827 C-17.89892384 207.18079533 -23.13233948 199.64748385 -23.13233948 193.12025452 C-24.09124084 193.13072815 -25.05014221 193.14120178 -26.0381012 193.1519928 C-29.59014667 193.1881478 -33.14217582 193.21113845 -36.6943512 193.2301178 C-38.23279046 193.24018569 -39.77121055 193.25384098 -41.30958557 193.27113342 C-43.51878081 193.29534768 -45.72772343 193.30672942 -47.93702698 193.31556702 C-48.62666534 193.32588959 -49.31630371 193.33621216 -50.02684021 193.34684753 C-51.73034854 193.3472493 -53.4331989 193.24216477 -55.13233948 193.12025452 C-57.60439837 190.64819562 -57.59769941 189.39629809 -58.09718323 185.97572327 C-58.33549866 184.3865509 -58.33549866 184.3865509 -58.57862854 182.76527405 C-58.74072815 181.6242926 -58.90282776 180.48331116 -59.06983948 179.30775452 C-59.24096252 178.14099182 -59.41208557 176.97422913 -59.58839417 175.77210999 C-59.93888502 173.37578375 -60.28603698 170.97896685 -60.62989807 168.5816803 C-61.08684926 165.43364632 -61.56670787 162.29040443 -62.05812073 159.14759827 C-65.29312761 138.18594152 -65.29312761 138.18594152 -64.13233948 132.12025452 C-60.50038451 129.69895121 -58.748846 129.91002666 -54.44483948 129.99525452 C-53.26534729 130.01330139 -52.0858551 130.03134827 -50.87062073 130.04994202 C-49.96698792 130.07314514 -49.0633551 130.09634827 -48.13233948 130.12025452 C-48.03654602 129.52446594 -47.94075256 128.92867737 -47.84205627 128.31483459 C-47.2855662 124.9143315 -46.71035691 121.51714647 -46.13233948 118.12025452 C-45.92837555 116.91124481 -45.92837555 116.91124481 -45.72029114 115.67781067 C-41.21822232 89.17419948 -36.15612164 65.24209153 -23.03712463 41.6598053 C-19.67703805 35.52862823 -16.88685667 29.11150958 -14.00733948 22.74525452 C-3.74759922 0.21134802 -3.74759922 0.21134802 0 0 Z M-29.13233948 90.12025452 C-29.80535237 93.36897368 -30.46963458 96.61941831 -31.13233948 99.87025452 C-31.41851135 101.25084045 -31.41851135 101.25084045 -31.71046448 102.65931702 C-31.9811676 103.9934967 -31.9811676 103.9934967 -32.25733948 105.35462952 C-32.50870667 106.58004456 -32.50870667 106.58004456 -32.76515198 107.83021545 C-33.23788543 110.39196489 -33.23788543 110.39196489 -33.13233948 114.12025452 C-30.49233948 114.12025452 -27.85233948 114.12025452 -25.13233948 114.12025452 C-25.13233948 106.20025452 -25.13233948 98.28025452 -25.13233948 90.12025452 C-26.45233948 90.12025452 -27.77233948 90.12025452 -29.13233948 90.12025452 Z M-4.31202698 149.78041077 C-12.49958521 160.30476136 -15.25935177 172.01873663 -14.13233948 185.12025452 C-11.82769018 196.0411495 -6.05075762 206.24221248 2.86766052 213.12025452 C14.37933353 219.92688406 25.25753845 222.8960696 38.64500427 220.65541077 C48.85875534 217.92851672 59.30726504 211.65597599 64.8735199 202.45814514 C71.23545044 190.97713702 73.98637455 179.97530147 71.18406677 166.94056702 C69.05735063 160.71043591 65.91210701 155.29635877 61.86766052 150.12025452 C61.38941833 149.50408264 60.91117615 148.88791077 60.41844177 148.25306702 C53.65570693 140.58749855 42.7829625 135.55932131 32.66844177 134.91712952 C17.87556191 134.71834502 6.04880833 138.85329498 -4.31202698 149.78041077 Z M-53.13233948 141.12025452 C-51.15233948 154.65025452 -49.17233948 168.18025452 -47.13233948 182.12025452 C-43.17233948 182.12025452 -39.21233948 182.12025452 -35.13233948 182.12025452 C-35.05800169 177.22730305 -35.0036492 172.33468268 -34.96754456 167.44129944 C-34.95248833 165.7778297 -34.93203884 164.11439946 -34.90602112 162.45106506 C-34.86949741 160.0555393 -34.85258166 157.66053985 -34.83937073 155.26478577 C-34.82388687 154.52500992 -34.80840302 153.78523407 -34.79244995 153.02304077 C-34.79099854 148.53706329 -35.34755805 145.67940914 -38.13233948 142.12025452 C-42.61440249 139.87922301 -48.12124068 141.12025452 -53.13233948 141.12025452 Z M423.86766052 152.12025452 C423.36755529 155.16256275 423.36755529 155.16256275 423.86766052 158.12025452 C425.73055542 160.42085985 425.73055542 160.42085985 428.68797302 160.31556702 C430.32379333 160.28076233 430.32379333 160.28076233 431.99266052 160.24525452 C433.63621521 160.2181842 433.63621521 160.2181842 435.31297302 160.19056702 C436.1560199 160.16736389 436.99906677 160.14416077 437.86766052 160.12025452 C437.86766052 156.49025452 437.86766052 152.86025452 437.86766052 149.12025452 C436.30016052 149.05837952 434.73266052 148.99650452 433.11766052 148.93275452 C432.23594177 148.89794983 431.35422302 148.86314514 430.44578552 148.82728577 C427.36637439 149.17721885 426.05571913 149.95236235 423.86766052 152.12025452 Z " fill="#000000" transform="translate(64.13233947753906,139.87974548339844)"/>
<path d="M0 0 C1.38847893 -0.00525696 1.38847893 -0.00525696 2.80500793 -0.01062012 C5.87545204 -0.01944428 8.94566668 -0.01358103 12.01611328 -0.00683594 C14.15544682 -0.00818354 16.29478006 -0.01012486 18.43411255 -0.01263428 C22.92827252 -0.01558741 27.42235314 -0.01128604 31.91650391 -0.00195312 C37.64688982 0.00937275 43.37708695 0.00292697 49.10746574 -0.00909805 C53.53271878 -0.01637047 57.95792808 -0.01400298 62.38318253 -0.00884247 C64.49366402 -0.00751722 66.60414961 -0.00911383 68.71462631 -0.01380157 C95.77461339 -0.06066547 118.11740263 4.03826755 138.30908203 23.52441406 C139.816981 25.04524527 141.31840268 26.57252851 142.81298828 28.10644531 C144.79516785 30.09222884 146.83055907 31.93533988 148.96142578 33.75878906 C152.79599141 37.04337715 156.31756051 40.58193769 159.84033203 44.19628906 C161.66120121 45.96685799 163.46598281 47.41175456 165.52392578 48.88378906 C167.96142578 51.25878906 167.96142578 51.25878906 168.46142578 54.94628906 C167.96142578 58.25878906 167.96142578 58.25878906 165.96142578 60.25878906 C163.05313969 60.51605797 163.05313969 60.51605797 159.24928284 60.5262146 C158.55140323 60.53074571 157.85352363 60.53527683 157.13449615 60.53994524 C154.78450333 60.55265536 152.43474029 60.55096467 150.0847168 60.54931641 C148.40457865 60.55529752 146.72444326 60.56210209 145.04431152 60.56967163 C140.47204568 60.58738068 135.89985462 60.59202905 131.3275578 60.5933032 C127.51523859 60.59519904 123.70293694 60.60255286 119.89062446 60.60964739 C110.89916057 60.62594734 101.90773674 60.63081486 92.91625977 60.62939453 C83.62990808 60.62819245 74.34378856 60.6493039 65.05749565 60.68088186 C57.09398124 60.70700032 49.13054287 60.71776371 41.16698593 60.71648371 C36.40657044 60.7159728 31.6463612 60.72172695 26.88598824 60.74283981 C22.41013158 60.76214799 17.93467949 60.76239793 13.4588089 60.74780655 C11.81364034 60.74570813 10.16844694 60.75048046 8.52332115 60.76252747 C6.28191674 60.7778812 4.04192464 60.76873949 1.80055237 60.75326538 C0.54490258 60.75435492 -0.7107472 60.75544445 -2.00444698 60.756567 C-5.03857422 60.25878906 -5.03857422 60.25878906 -6.9217844 58.47187233 C-8.66557684 55.01629116 -8.86898281 51.40912489 -9.20654297 47.61035156 C-9.33335197 46.3368837 -9.33335197 46.3368837 -9.46272278 45.03768921 C-9.63922587 43.23779245 -9.80945924 41.43727142 -9.97387695 39.63623047 C-10.22214035 36.92672266 -10.49088216 34.21988101 -10.76318359 31.51269531 C-12.97486307 8.90701667 -12.97486307 8.90701667 -12.03857422 2.25878906 C-8.06254081 -0.39189988 -4.61508599 -0.02133334 0 0 Z M-1.03857422 11.25878906 C-0.75425617 14.9677226 -0.45968461 18.67577986 -0.16357422 22.38378906 C-0.08494141 23.41117188 -0.00630859 24.43855469 0.07470703 25.49707031 C0.72184142 33.51158083 1.818712 41.25979263 2.96142578 49.25878906 C50.81142578 49.25878906 98.66142578 49.25878906 147.96142578 49.25878906 C144.00546886 44.64350599 140.23173732 40.42940803 135.77392578 36.38378906 C135.2100415 35.87058105 134.64615723 35.35737305 134.06518555 34.82861328 C132.37105695 33.29715723 130.66807927 31.77626401 128.96142578 30.25878906 C128.01525391 29.41316406 127.06908203 28.56753906 126.09423828 27.69628906 C112.35948845 15.91227182 96.92275536 11.06540647 78.99682617 11.14526367 C78.12773621 11.14511765 77.25864624 11.14497162 76.36322021 11.14482117 C73.51181477 11.1455137 70.66047596 11.15327506 67.80908203 11.16113281 C65.82368506 11.16299933 63.83828762 11.16442213 61.85289001 11.16542053 C56.64316523 11.16922726 51.43346859 11.17904171 46.22375488 11.19012451 C40.90128968 11.20037837 35.5788199 11.20492666 30.25634766 11.20996094 C19.8246947 11.22066571 9.39306259 11.23771987 -1.03857422 11.25878906 Z " fill="#000000" transform="translate(189.03857421875,156.7412109375)"/>
<path d="M0 0 C1.06144478 -0.01051392 1.06144478 -0.01051392 2.14433289 -0.02124023 C4.48399063 -0.03884915 6.82243929 -0.02718845 9.16210938 -0.01367188 C10.78731519 -0.01636599 12.41251943 -0.02024773 14.03771973 -0.02526855 C17.44408512 -0.03116748 20.85003101 -0.02258835 24.25634766 -0.00390625 C28.62485392 0.01888401 32.99237729 0.00576297 37.36084747 -0.01819611 C40.71689269 -0.03264371 44.0727045 -0.02805297 47.42875671 -0.01768494 C49.03952653 -0.01501475 50.65031747 -0.01829767 52.26106262 -0.02760315 C54.51185304 -0.0377523 56.76104738 -0.02229355 59.01171875 0 C60.29284546 0.00318237 61.57397217 0.00636475 62.8939209 0.00964355 C66.00585938 0.51757812 66.00585938 0.51757812 67.89875793 2.31167603 C69.60185582 5.70510238 69.83349654 9.22068116 70.17382812 12.94726562 C70.25836746 13.77404816 70.3429068 14.60083069 70.43000793 15.45266724 C70.60649165 17.20547166 70.77672688 18.95891488 70.94116211 20.71289062 C71.18935453 23.35002521 71.45813983 25.98440165 71.73046875 28.61914062 C73.82334484 49.46908311 73.82334484 49.46908311 73.00585938 57.51757812 C70.29861312 60.22482438 68.1739318 59.76373426 64.49656677 59.78863525 C63.5811763 59.78458679 62.66578583 59.78053833 61.72265625 59.77636719 C60.27863182 59.78162415 60.27863182 59.78162415 58.80543518 59.7869873 C55.61175401 59.7958159 52.41829295 59.78995146 49.22460938 59.78320312 C47.01265419 59.78454945 44.80069929 59.78648971 42.58874512 59.78900146 C37.94829497 59.79195426 33.3079217 59.78765007 28.66748047 59.77832031 C22.70842113 59.76692573 16.74954192 59.77348437 10.7904892 59.78546524 C6.22156406 59.79267963 1.65268189 59.79039785 -2.91624451 59.78520966 C-5.11396811 59.78387199 -7.31169557 59.78552493 -9.50941467 59.79016876 C-12.57669462 59.79522706 -15.64367961 59.78753351 -18.7109375 59.77636719 C-19.62632797 59.78041565 -20.54171844 59.78446411 -21.48484802 59.78863525 C-27.76561321 59.74610554 -27.76561321 59.74610554 -29.99414062 57.51757812 C-30.87054591 50.89239101 -28.39343466 45.88187575 -25.72460938 39.91210938 C-25.2878035 38.91048264 -24.85099762 37.9088559 -24.4009552 36.87687683 C-23.47799821 34.76724176 -22.54888348 32.66029129 -21.61401367 30.5559082 C-20.18436667 27.33621742 -18.77426089 24.10851681 -17.3671875 20.87890625 C-16.46662721 18.82697658 -15.56497151 16.77552725 -14.66210938 14.72460938 C-14.24011765 13.76102005 -13.81812592 12.79743073 -13.38334656 11.80464172 C-12.98315811 10.9065831 -12.58296967 10.00852448 -12.1706543 9.08325195 C-11.64770027 7.90246819 -11.64770027 7.90246819 -11.11418152 6.6978302 C-8.15521091 0.93794961 -6.68115738 0.01659628 0 0 Z M0.00585938 10.51757812 C-4.23055188 18.9880971 -4.23055188 18.9880971 -8.10742188 27.58398438 C-8.49633858 28.49143654 -8.49633858 28.49143654 -8.89311218 29.41722107 C-9.42962224 30.67083817 -9.96468741 31.92507465 -10.49829102 33.17993164 C-11.31931327 35.10986708 -12.14566277 37.03746047 -12.97265625 38.96484375 C-15.66587668 44.11326245 -15.66587668 44.11326245 -16.99414062 49.51757812 C9.07585937 49.51757812 35.14585937 49.51757812 62.00585938 49.51757812 C61.07478888 36.48259115 59.56287261 23.49268844 58.00585938 10.51757812 C38.86585938 10.51757812 19.72585937 10.51757812 0.00585938 10.51757812 Z " fill="#000000" transform="translate(97.994140625,157.482421875)"/>
<path d="M0 0 C7.18705337 3.83398572 12.90267697 8.92390617 16.2734375 16.43359375 C18.52321961 24.36975175 18.5372834 33.43859426 15.0625 41 C11.12721865 47.55880225 6.12527503 52.93032833 -1.09375 55.7734375 C-9.90253155 57.87665781 -19.77486678 57.84308121 -27.69140625 53.1171875 C-33.91702394 48.32825082 -39.51929447 42.38746253 -40.875 34.4375 C-41.90700857 23.41199073 -40.54909281 15.76031026 -33.625 7.125 C-25.32185594 -1.85814292 -11.36607945 -4.64975977 0 0 Z M-26.48046875 16.19921875 C-30.2221453 21.36629589 -30.8101242 26.19633396 -29.875 32.4375 C-28.07005572 37.95850602 -24.42877265 41.06880553 -19.875 44.4375 C-15.68911228 46.53044386 -10.4334359 45.86167949 -5.875 45.4375 C-0.6395086 42.96254043 3.51729231 38.65291538 6.125 33.4375 C6.62739048 27.93591245 6.88705731 23.04954431 4.5 18 C-0.28336641 12.8389994 -4.26286208 9.3604444 -11.5625 9.0625 C-18.05294571 9.15711291 -22.1487562 11.44592834 -26.48046875 16.19921875 Z " fill="#000000" transform="translate(428.875,290.5625)"/>
<path d="M0 0 C7.18705337 3.83398572 12.90267697 8.92390617 16.2734375 16.43359375 C18.52321961 24.36975175 18.5372834 33.43859426 15.0625 41 C11.12721865 47.55880225 6.12527503 52.93032833 -1.09375 55.7734375 C-9.90253155 57.87665781 -19.77486678 57.84308121 -27.69140625 53.1171875 C-33.91702394 48.32825082 -39.51929447 42.38746253 -40.875 34.4375 C-41.90700857 23.41199073 -40.54909281 15.76031026 -33.625 7.125 C-25.32185594 -1.85814292 -11.36607945 -4.64975977 0 0 Z M-26.48046875 16.19921875 C-30.2221453 21.36629589 -30.8101242 26.19633396 -29.875 32.4375 C-28.07005572 37.95850602 -24.42877265 41.06880553 -19.875 44.4375 C-15.68911228 46.53044386 -10.4334359 45.86167949 -5.875 45.4375 C-0.6395086 42.96254043 3.51729231 38.65291538 6.125 33.4375 C6.62739048 27.93591245 6.88705731 23.04954431 4.5 18 C-0.28336641 12.8389994 -4.26286208 9.3604444 -11.5625 9.0625 C-18.05294571 9.15711291 -22.1487562 11.44592834 -26.48046875 16.19921875 Z " fill="#000000" transform="translate(104.875,290.5625)"/>
<path d="M0 0 C0.72856201 -0.01015137 1.45712402 -0.02030273 2.20776367 -0.03076172 C7.65543276 0.05733406 11.90275759 1.12968227 16.01953125 4.97265625 C20.39421376 10.69339492 21.12552339 14.28608426 20.375 21.4375 C18.84478249 26.33235239 15.92495353 29.18230081 11.44165039 31.62158203 C7.6489349 33.11895417 3.90312144 33.01386249 -0.125 32.9375 C-0.94097656 32.95296875 -1.75695312 32.9684375 -2.59765625 32.984375 C-8.42378362 32.94696808 -11.83540886 31.76513421 -16.625 28.4375 C-20.31132884 24.65664991 -20.9286138 21.55621131 -21.125 16.4375 C-20.92212053 11.31479347 -20.36907512 8.18157512 -16.625 4.4375 C-11.24318524 0.42752038 -6.52090696 0.06552274 0 0 Z M-9.625 13.4375 C-10.04166667 16.4375 -10.04166667 16.4375 -9.625 19.4375 C-6.76163629 22.30086371 -4.67271654 21.73766187 -0.6875 21.75 C0.55902344 21.76675781 1.80554688 21.78351563 3.08984375 21.80078125 C6.31706759 21.70859285 6.31706759 21.70859285 8.328125 20.078125 C9.62901887 18.40000406 9.62901887 18.40000406 9.1875 15.875 C8.52872967 13.29308728 8.52872967 13.29308728 6.375 11.4375 C3.35072298 11.1170233 3.35072298 11.1170233 -0.0625 11.1875 C-1.21621094 11.18234375 -2.36992187 11.1771875 -3.55859375 11.171875 C-6.79685674 11.20480947 -6.79685674 11.20480947 -9.625 13.4375 Z " fill="#000000" transform="translate(452.625,230.5625)"/>
<path d="M0 0 C12.87 0 25.74 0 39 0 C39 3.3 39 6.6 39 10 C26.13 10 13.26 10 0 10 C0 6.7 0 3.4 0 0 Z " fill="#000000" transform="translate(203,236)"/>
</svg>
